<svg id="Ebene_1" data-name="Ebene 1" xmlns="http://www.w3.org/2000/svg" viewBox="0 0 503 100"><defs><style>.cls-1{fill:#fff;}</style></defs><path class="cls-1" d="M-.35,30.64H13.4v4.1h.14c1.8-2.37,4-5,11-5,10.58,0,15.7,10.44,15.7,19.8C40.19,58.29,36.8,69,24.27,69a12.22,12.22,0,0,1-10.22-5H13.9v16.2H-.35Zm20,27.94c5.11,0,6.26-4.83,6.26-9.22s-1.15-9.29-6.26-9.29S13.4,44.9,13.4,49.36,14.55,58.58,19.67,58.58Z"/><path class="cls-1" d="M82.74,59.66c0,2.8.14,6,1.73,8.35H69.92a10,10,0,0,1-.5-3.53h-.15c-3,3.46-7.41,4.47-12,4.47-7.2,0-13.18-3.46-13.18-11.31,0-11.81,13.83-11.38,21.1-12.74,1.94-.36,3.89-.94,3.89-3.32s-2.38-3.45-4.68-3.45c-4.4,0-5.26,2.23-5.33,3.81H45.8c.22-5.25,2.81-8.35,6.48-10.08S60.63,29.7,65,29.7c17.86,0,17.72,7.42,17.72,14.62ZM69.06,51.23A24,24,0,0,1,63.44,53c-3.17.72-4.82,1.51-4.82,4,0,1.73,1.87,3.46,4.46,3.46,3.24,0,5.76-1.94,6-5.83Z"/><path class="cls-1" d="M128.39,63.19c0,7.41-1.95,17.85-19.45,17.85-8.85,0-18.21-2.37-19.51-12.45h14.11a9.33,9.33,0,0,0,.8,1.29c.86,1.3,2.37,2.74,4.17,2.74,4.61,0,5.62-5.47,5.62-8.57V60.59H114a11.74,11.74,0,0,1-10,5.19c-11,0-16-8.21-16-18.22,0-9.72,5.54-17.86,16.2-17.86,4.18,0,8.14,1.66,9.79,5.47h.15V30.64h14.26Zm-19.73-6.56c5.25,0,5.83-5,5.83-9.21s-2-7.35-6.19-7.35-6,3.46-6,7.42C102.25,51.74,103.54,56.63,108.66,56.63Z"/><path class="cls-1" d="M147.68,52.53c.36,4.25,2.81,7.27,7.27,7.27,2.31,0,4.83-.86,6-2.66h13.32C171.37,65.2,163.52,69,155,69c-12,0-21-7.06-21-19.52,0-10.87,7.92-19.73,19.73-19.73C168.63,29.7,175,38,175,52.53Zm13.68-7.42a6.13,6.13,0,0,0-6.26-6.26c-4.25,0-6.7,2.23-7.35,6.26Z"/><path class="cls-1" d="M219.9,68H206.14v-4.1H206c-1.8,2.37-4,5-10.95,5-10.58,0-15.69-10.45-15.69-19.81,0-8.78,3.38-19.44,15.91-19.44a12.2,12.2,0,0,1,10.23,5h.14V16.6H219.9Zm-20-27.94c-5.11,0-6.27,4.83-6.27,9.22s1.16,9.29,6.27,9.29,6.26-4.83,6.26-9.29S205,40.07,199.88,40.07Z"/><path class="cls-1" d="M239.69,52.53c.36,4.25,2.81,7.27,7.28,7.27,2.3,0,4.82-.86,6-2.66h13.32C263.38,65.2,255.54,69,247,69c-11.95,0-21-7.06-21-19.52,0-10.87,7.93-19.73,19.73-19.73,14.84,0,21.25,8.28,21.25,22.83Zm13.69-7.42a6.14,6.14,0,0,0-6.27-6.26c-4.25,0-6.7,2.23-7.34,6.26Z"/><path class="cls-1" d="M294.63,41.51A3.61,3.61,0,0,0,293,38.7a4.94,4.94,0,0,0-3.16-1.08c-2,0-4.32.43-4.32,2.88,0,1.08.86,1.59,1.65,2,2.38,1,7.78,1.29,12.53,2.88s8.93,4.32,8.93,10.44c0,10.37-9.94,13.18-19,13.18-8.79,0-18.43-3.53-18.65-13.18h13.61a4.59,4.59,0,0,0,1.73,3.31,5.87,5.87,0,0,0,3.81,1.08c1.88,0,4.83-.72,4.83-2.88s-1.23-2.81-7.85-4C276.2,51.45,271.8,48,271.8,41.58c0-9.43,10.16-11.88,17.65-11.88,8.06,0,17.78,2.23,18.14,11.81Z"/><path class="cls-1" d="M328.9,26.61H314.64v-10H328.9Zm-14.26,4H328.9V68H314.64Z"/><path class="cls-1" d="M375.13,63.19c0,7.41-1.95,17.85-19.45,17.85-8.85,0-18.21-2.37-19.51-12.45h14.11a9.33,9.33,0,0,0,.8,1.29c.86,1.3,2.37,2.74,4.17,2.74,4.61,0,5.62-5.47,5.62-8.57V60.59h-.15a11.74,11.74,0,0,1-10,5.19c-11,0-16-8.21-16-18.22,0-9.72,5.54-17.86,16.2-17.86,4.18,0,8.14,1.66,9.79,5.47h.15V30.64h14.26ZM355.4,56.63c5.25,0,5.83-5,5.83-9.21s-2-7.35-6.19-7.35S349,43.53,349,47.49C349,51.74,350.28,56.63,355.4,56.63Z"/><path class="cls-1" d="M382.39,30.64h13.76v4.75h.14c2.67-3.74,6.48-5.69,12.17-5.69,6.7,0,12.82,4.11,12.82,12.68V68H407V48.42c0-4.32-.5-7.34-4.68-7.34-2.45,0-5.69,1.22-5.69,7.2V68H382.39Z"/><path class="cls-1" d="M441.08,52.53c.35,4.25,2.8,7.27,7.27,7.27,2.3,0,4.82-.86,6-2.66h13.33C464.76,65.2,456.92,69,448.42,69c-11.95,0-20.95-7.06-20.95-19.52,0-10.87,7.92-19.73,19.73-19.73,14.83,0,21.24,8.28,21.24,22.83Zm13.68-7.42a6.14,6.14,0,0,0-6.27-6.26c-4.25,0-6.7,2.23-7.34,6.26Z"/><path class="cls-1" d="M474.41,30.64h13.68v6h.14c2.31-4.47,5.33-6.92,10.52-6.92a16.14,16.14,0,0,1,4.17.58v12.6a14.44,14.44,0,0,0-5.61-.94c-5.62,0-8.64,3.32-8.64,11.31V68H474.41Z"/><path class="cls-1" d="M14,17H9.43V15.64h0a3.83,3.83,0,0,1-3.64,1.68C2.21,17.32.5,13.84.5,10.72c0-2.93,1.13-6.48,5.31-6.48A4.07,4.07,0,0,1,9.22,5.92h0v-6H14ZM7.34,7.7c-1.7,0-2.08,1.6-2.08,3.07s.38,3.1,2.08,3.1,2.09-1.61,2.09-3.1S9.05,7.7,7.34,7.7Z"/><path class="cls-1" d="M16.61,4.55h4.56v2h0a3.64,3.64,0,0,1,3.5-2.3,5.36,5.36,0,0,1,1.39.19v4.2a4.76,4.76,0,0,0-1.87-.31c-1.87,0-2.88,1.1-2.88,3.77V17H16.61Z"/><path class="cls-1" d="M40.22,17H35.64V15.43h0a4.58,4.58,0,0,1-4.05,1.89,4,4,0,0,1-4.28-4.22V4.55H32v6.53c0,1.44.16,2.45,1.56,2.45.81,0,1.89-.41,1.89-2.4V4.55h4.75Z"/><path class="cls-1" d="M42.81,4.55H47.4V5.92h.05c.6-.79,1.32-1.68,3.65-1.68,3.52,0,5.23,3.48,5.23,6.6,0,2.93-1.13,6.48-5.31,6.48a4,4,0,0,1-3.4-1.68h0V21H42.81Zm6.68,9.32c1.7,0,2.09-1.61,2.09-3.08S51.19,7.7,49.49,7.7,47.4,9.3,47.4,10.79,47.78,13.87,49.49,13.87Z"/><path class="cls-1" d="M70.51,14.23A5,5,0,0,0,71.09,17H66.24a3.44,3.44,0,0,1-.17-1.18h0a5,5,0,0,1-4,1.49c-2.4,0-4.39-1.15-4.39-3.77,0-3.93,4.61-3.79,7-4.25C65.3,9.19,66,9,66,8.2s-.79-1.15-1.56-1.15c-1.46,0-1.75.74-1.78,1.27H58.2A3.6,3.6,0,0,1,60.36,5a10.15,10.15,0,0,1,4.25-.72c6,0,5.9,2.47,5.9,4.87ZM66,11.42a8.18,8.18,0,0,1-1.87.6c-1.06.24-1.61.5-1.61,1.34A1.36,1.36,0,0,0,64,14.51a1.88,1.88,0,0,0,2-1.94Z"/><path class="cls-1" d="M73.13-.13h4.75V17H73.13Z"/><path class="cls-1" d="M424.88,78.09h1.51V85.2h.05a4.42,4.42,0,0,1,4.3-2.72c3.76,0,5.56,3,5.56,6.56s-1.8,6.55-5.56,6.55a4.64,4.64,0,0,1-4.42-2.71h-.05v2.35h-1.39Zm5.86,5.67c-3.22,0-4.35,2.71-4.35,5.28s1.13,5.28,4.35,5.28c2.88,0,4.05-2.71,4.05-5.28S433.62,83.76,430.74,83.76Z"/><path class="cls-1" d="M437.26,82.84h1.61L443,93.41l3.82-10.57h1.51L442.9,97.13c-.86,2.08-1.36,2.68-3.26,2.68a3.64,3.64,0,0,1-1.15-.12V98.42a5.34,5.34,0,0,0,1,.12c1.34,0,1.66-.79,2.16-1.94l.53-1.42Z"/><path class="cls-1" d="M456.46,78.09H458v2.43h-1.51Zm0,4.75H458V95.23h-1.51Z"/><path class="cls-1" d="M471.78,99.81h-1.52V92.88h0a4.43,4.43,0,0,1-4.3,2.71c-3.77,0-5.57-3-5.57-6.55s1.8-6.56,5.57-6.56a4.92,4.92,0,0,1,4.42,2.72h0V82.84h1.4Zm-5.86-5.49c3.22,0,4.34-2.71,4.34-5.28s-1.12-5.28-4.34-5.28c-2.88,0-4.06,2.71-4.06,5.28S463,94.32,465.92,94.32Z"/><path class="cls-1" d="M484.69,95.23H483.3V93h-.05A4.62,4.62,0,0,1,479,95.59c-3.13,0-4.35-1.82-4.35-4.71v-8h1.51v8.07c.07,2.23.91,3.41,3.32,3.41,2.59,0,3.72-2.45,3.72-5V82.84h1.51Z"/><path class="cls-1" d="M487.4,86.64c.14-2.91,2.18-4.16,5-4.16,2.18,0,4.56.68,4.56,4V93a.8.8,0,0,0,.88.92,1.36,1.36,0,0,0,.48-.1v1.27a3.69,3.69,0,0,1-1,.1c-1.54,0-1.78-.86-1.78-2.16h0A4.73,4.73,0,0,1,491,95.59c-2.28,0-4.15-1.13-4.15-3.63,0-3.47,3.38-3.59,6.65-4,1.25-.14,1.94-.31,1.94-1.68,0-2-1.46-2.54-3.24-2.54s-3.26.86-3.31,2.88Zm8.06,1.82h0c-.2.36-.87.48-1.28.55-2.56.46-5.76.44-5.76,2.86a2.59,2.59,0,0,0,2.76,2.45c2.31,0,4.35-1.47,4.32-3.89Z"/><path class="cls-1" d="M500,78.09h1.51V95.23H500Z"/></svg>